<svg xmlns="http://www.w3.org/2000/svg" viewBox="0 0 48 48"><path fill="#fefd1a" d="M2.299 2.317h43.417v34.278H2.299z"/><style>#m{animation:shake 2s linear alternate infinite}#w{animation:shake 2s linear alternate-reverse infinite}@keyframes shake{to{transform:translateY(-11px)}}</style><g fill="#fff"><path d="M47.968 41.595a1.033 1.033 0 0 0-.118-.492c-.189-.404-.459-.623-.924-.59-.18.013-.359.052-.532.112a6.46 6.46 0 0 0-1.267.611c-.241.149-.475.307-.658.527-.184.22-.251.454-.016.687.048.048.061.094.029.157-.039.079-.067.163-.106.242a2.21 2.21 0 0 0-.186 1.441c.076.394.298.672.682.808.26.092.533.101.801.063.527-.075.927-.375 1.268-.766.253-.29.456-.614.63-.954.195-.381.381-.77.399-1.212a.078.078 0 0 1 .031-.06v-.495a.089.089 0 0 1-.033-.079zm-.709.153c-.011.494-.179.942-.41 1.37-.142.264-.31.513-.506.741-.243.284-.533.494-.898.59a.884.884 0 0 1-.316.013c-.132-.014-.22-.14-.237-.311-.024-.236.041-.455.124-.67.162-.421.399-.796.698-1.135.186-.211.347-.444.518-.668a.882.882 0 0 1 .833-.359c.108.01.179.089.192.217.008.07.002.141.002.212zM6.936 41.385c.018-.252.052-.501.093-.749.038-.231.09-.461.084-.697-.006-.241.044-.479.04-.721-.002-.116.021-.233.041-.349.057-.329.135-.654.218-.978a.791.791 0 0 0-.013-.434c-.054-.177-.184-.244-.353-.273-.177-.031-.252.078-.323.21-.2.375-.34.774-.489 1.17a.495.495 0 0 0-.037.172c-.002.158-.021.316-.029.474-.016.305-.045.608-.075.911-.039.391-.097.779-.156 1.167a15.093 15.093 0 0 1-.338 1.528c-.104.398-.266.778-.36 1.179a4.319 4.319 0 0 1-.107.39c-.063.185-.188.212-.334.079a.778.778 0 0 1-.158-.21c-.209-.382-.274-.81-.384-1.223A9.838 9.838 0 0 1 4.02 41.7c-.04-.325-.083-.65-.084-.981-.001-.412.034-.822.032-1.234a1.83 1.83 0 0 0-.155-.736.84.84 0 0 0-.243-.32c-.165-.132-.346-.105-.47.067-.125.173-.221.36-.288.563a3.157 3.157 0 0 0-.13.601c-.039.308-.096.614-.115.923a4.024 4.024 0 0 1-.096.695c-.179.735-.304 1.482-.482 2.217-.031.127-.042.262-.119.396-.041-.083-.08-.149-.108-.219a5.754 5.754 0 0 1-.247-.734 6.11 6.11 0 0 1-.188-.983c-.034-.409-.031-.82-.068-1.23a6.252 6.252 0 0 0-.196-1.088 1.849 1.849 0 0 0-.264-.574.399.399 0 0 0-.159-.135c-.119-.058-.138-.061-.227.042-.12.137-.234.279-.344.424-.071.092-.065.123.02.212.066.069.13.135.142.237.018.152.038.302.035.456-.011.558.002 1.114.1 1.667.074.415.129.834.222 1.245.121.53.289 1.043.623 1.483.2.264.432.497.734.648.1.05.203.064.306.018a.566.566 0 0 0 .246-.194c.119-.172.193-.362.243-.563l.382-1.519c.014-.056.009-.131.091-.127.08.003.075.086.083.136.021.128.05.254.092.376.231.666.562 1.28.994 1.836.098.126.217.23.359.308.229.125.426.082.604-.063.109-.089.206-.192.291-.307.293-.395.516-.828.669-1.294.2-.608.339-1.233.492-1.854.053-.237.122-.469.139-.71zM21.711 43.721a4.092 4.092 0 0 1-.056-.925c.014-.281.054-.56.072-.841.021-.322.063-.642.082-.964.018-.315.067-.629.095-.944.03-.327.043-.656.081-.981.016-.14.012-.283.037-.42.042-.23.036-.456-.011-.682-.058-.273-.174-.513-.429-.658-.142-.08-.233-.066-.352.042a2.143 2.143 0 0 0-.255.291c-.408.533-.793 1.08-1.063 1.699-.033.075-.063.152-.098.227-.015.033-.042.058-.084.051-.045-.007-.051-.043-.052-.08v-.318h-.001c0-.082-.002-.165 0-.247.009-.35-.159-.592-.462-.748-.216-.111-.404-.046-.511.174a.712.712 0 0 0-.052.149 7.8 7.8 0 0 1-.103.427c-.132.476-.312.935-.506 1.39-.467 1.098-.907 2.207-1.432 3.279a.483.483 0 0 0 .008.455.792.792 0 0 0 .228.266c.134.104.285.087.411-.033.122-.116.194-.264.273-.409.339-.621.609-1.272.851-1.935.026-.072.056-.142.086-.212.011-.027.026-.057.062-.051.035.006.073.019.081.058.009.04.01.082.008.122a1 1 0 0 0 .045.331c.062.215.134.426.307.586.199.184.379.172.53-.047.047-.068.087-.14.125-.212.275-.516.468-1.065.655-1.616.125-.368.27-.727.457-1.069.017-.031.031-.063.05-.094.019-.031.044-.058.085-.049.045.009.047.046.047.082-.003.1-.001.2-.011.3-.029.297-.067.593-.094.891-.029.315-.039.633-.083.946-.023.163-.021.327-.053.489a2.321 2.321 0 0 0-.033.507c.006.181.038.361.061.541.034.262.062.524.16.772.1.252.221.494.356.728.091.157.194.309.326.437a.48.48 0 0 0 .564.043.268.268 0 0 0 .116-.207c.016-.174-.062-.319-.122-.471-.139-.353-.329-.689-.396-1.07zM31.904 40.704c-.271-.165-.56-.145-.852-.074a3.839 3.839 0 0 0-.991.406 6.015 6.015 0 0 0-1.017.724c-.496.437-.753 1.011-.921 1.634-.022.083-.053.125-.14.121-.1-.004-.202.007-.3-.007-.198-.029-.38-.092-.456-.306a.624.624 0 0 1-.009-.348c.034-.161.088-.318.109-.48.036-.286.055-.576-.054-.853-.069-.177-.168-.339-.332-.443-.191-.122-.364-.033-.417.184-.039.161.006.332-.077.496-.075-.152-.136-.293-.21-.425-.311-.553-.755-.861-1.421-.797a1.94 1.94 0 0 0-.903.314c-.238.157-.44.352-.612.578a3.007 3.007 0 0 0-.519 1.013c-.094.334-.109.671-.099 1.013.012.401.111.778.322 1.121.264.428.654.644 1.154.668.493.024.935-.145 1.362-.364.447-.23.804-.567 1.119-.954.061-.075.107-.168.191-.222.054.025.063.076.086.115.181.297.657.589 1.06.316.103-.07.115-.058.151.061.127.417.398.7.796.865.235.098.486.131.738.144.33.018.657-.017.981-.075.271-.048.539-.118.785-.25a.511.511 0 0 0 .229-.212c.058-.112.024-.199-.094-.234a.735.735 0 0 0-.383-.026c-.144.034-.292.041-.436.051-.416.027-.832.057-1.25.043a1.16 1.16 0 0 1-.327-.061c-.325-.109-.405-.493-.363-.744.053-.308.188-.579.35-.84.068-.109.07-.109.156-.009.141.164.297.285.526.323.427.071.816-.025 1.188-.218.332-.172.613-.412.87-.683.149-.157.26-.335.34-.532a.915.915 0 0 0 .079-.447c-.03-.268-.189-.452-.409-.586zm-5.942 2.9c-.364.333-.773.592-1.251.732a1.41 1.41 0 0 1-.712.032c-.29-.064-.471-.253-.573-.522-.108-.283-.092-.578-.052-.87.091-.673.475-1.164 1.002-1.555.159-.118.334-.21.538-.25a.681.681 0 0 1 .588.163c.334.274.502.641.54 1.07.016.182.061.358.117.531.034.105.111.16.238.166-.118.222-.28.361-.435.503zm5.605-2.195a.796.796 0 0 1-.132.247c-.284.318-.604.589-1.013.735a1.318 1.318 0 0 1-.273.061c-.149.02-.244-.051-.329-.158-.047-.059-.038-.094.019-.144.225-.199.471-.366.728-.518.218-.129.444-.235.692-.294a.852.852 0 0 1 .174-.02h.07c.066-.001.086.035.064.091zM16.114 43.37a9.612 9.612 0 0 0-.958-1.742c-.214-.31-.46-.594-.784-.801-.347-.222-.718-.325-1.123-.211-.246.069-.455.214-.647.383-.064.057-.116.129-.226.191.153-.811.334-1.575.44-2.352.025-.185.061-.37.051-.56-.021-.391-.242-.595-.584-.524-.216.045-.234.099-.23.269.009.365-.034.727-.078 1.087-.07.576-.19 1.143-.324 1.708-.188.792-.391 1.582-.534 2.384-.051.288-.11.58-.08.873.043.431.126.551.546.529a.22.22 0 0 0 .085-.018c.085-.04.161-.017.232.032.103.069.215.12.329.167.211.089.428.162.647.228a9.691 9.691 0 0 0 1.687.328c.104.012.213.048.313.031.217-.037.434-.025.65-.025.449.001.708-.275.772-.688a2 2 0 0 0 0-.489 2.684 2.684 0 0 0-.184-.8zm-.874 1.209c-.237.03-.468-.004-.698-.026-.389-.037-.773-.12-1.163-.164a3.482 3.482 0 0 1-.653-.131c-.103-.032-.173-.076-.19-.199-.021-.153-.135-.243-.27-.301-.083-.036-.111-.074-.08-.173.192-.61.368-1.227.745-1.758.099-.14.217-.262.362-.356.259-.17.518-.153.766.033.171.129.312.286.441.452.293.378.513.799.706 1.236a3.727 3.727 0 0 1 .307 1.02c.004.267-.088.344-.273.367zM10.158 40.579c-.454-.003-.863.162-1.256.364-.318.164-.618.36-.903.581-.402.311-.736.671-.943 1.143-.168.384-.325.766-.303 1.2.023.436.201.778.553 1.032.308.223.666.282 1.032.303.323.018.645-.017.963-.073.277-.049.551-.119.802-.254a.511.511 0 0 0 .228-.213c.056-.112.02-.195-.099-.232a.777.777 0 0 0-.348-.032c-.453.069-.91.09-1.3.1-.26-.006-.454.012-.646-.032a.552.552 0 0 1-.408-.327.765.765 0 0 1-.05-.448c.051-.308.188-.579.35-.84.067-.107.068-.106.156-.005.133.153.277.278.492.316.45.08.86-.02 1.253-.233.325-.176.598-.413.852-.678.15-.156.259-.337.333-.536a.9.9 0 0 0 .066-.464c-.06-.374-.466-.669-.824-.672zm-.027 1.042c-.317.379-.687.687-1.181.81-.023.006-.045.013-.068.015-.029.003-.059.001-.088.001-.052.001-.107.012-.155-.018a.412.412 0 0 1-.168-.176c-.042-.102.071-.125.12-.165.401-.327.823-.619 1.336-.748.103-.026.243-.069.3.003.068.086-.034.203-.096.278zM35.894 42.845a3.117 3.117 0 0 0-1.31-.578c-.333-.065-.67-.118-.991-.236-.049-.018-.101-.036-.143-.066-.091-.063-.094-.145-.011-.22a.53.53 0 0 1 .185-.101 3.761 3.761 0 0 1 1.066-.214c.578-.028.591-.052 1.025.295.122.098.269.059.406.037.045-.007.072-.056.087-.103.06-.181.052-.35-.094-.488-.34-.321-.751-.467-1.209-.496-.102.012-.2.01-.3.029-.366.07-.711.201-1.055.336a2.87 2.87 0 0 0-.682.365c-.313.235-.348.514-.105.859.101.144.237.263.393.351.267.151.546.275.841.36.31.089.62.181.924.289.183.065.36.145.53.238.137.074.213.16.127.384a.556.556 0 0 1-.256.281 1.659 1.659 0 0 1-.683.217c-.399.04-.788-.003-1.128-.246a1.858 1.858 0 0 0-.292-.163c-.135-.064-.28-.019-.386.114-.107.135-.117.261-.019.385a.916.916 0 0 0 .233.214c.332.21.697.335 1.078.42.328.073.651.054.968-.053a2.68 2.68 0 0 0 .753-.415c.153-.115.277-.253.376-.415.287-.471.089-1.062-.328-1.38zM40.101 40.721c-.023.001-.047 0-.07.005-.219.041-.443.039-.664.061-.245.025-.491.032-.735.066a.436.436 0 0 1-.222-.011l.11-.58c.059-.317.125-.633.121-.958a.873.873 0 0 0-.103-.423.306.306 0 0 0-.29-.167.296.296 0 0 0-.264.178 1.15 1.15 0 0 0-.084.25c-.047.236-.05.477-.09.714-.054.323-.166.636-.162.97.002.142-.049.183-.188.206-.064.01-.128.022-.191.029-.161.019-.316.067-.487.021a.373.373 0 0 0-.413.199c-.104.261.107.592.387.607.172.009.338-.021.504-.064.234-.061.249-.042.2.201-.102.505-.252 1.001-.317 1.514-.063.49.042.937.339 1.329.203.269.477.371.811.274.096-.028.193-.052.287-.085.164-.059.274-.148.298-.348.035-.295-.138-.508-.438-.495-.079.004-.129.024-.154.111-.032.112-.075.126-.159.054-.187-.16-.306-.368-.29-.616.018-.28.07-.557.11-.836.044-.307.14-.605.136-.921a.903.903 0 0 1 .061-.309c.02-.056.054-.084.115-.093.481-.07.961-.14 1.441-.215.185-.029.369-.067.551-.109.138-.032.186-.093.193-.214.021-.312-.027-.36-.343-.345zM44.43 41.204c.006-.037.026-.063.048-.092.086-.117.083-.214-.02-.31a.488.488 0 0 0-.399-.149 4.098 4.098 0 0 0-1.203.316c-.586.241-1.168.49-1.648.949-.038-.122-.065-.224-.102-.323a.466.466 0 0 0-.178-.235c-.191-.123-.395-.03-.412.195-.016.205-.039.408-.035.615.007.329-.004.659.003.988.005.236-.021.47-.053.701-.045.327-.008.644.079.955.079.284.196.358.485.355.202-.002.263-.058.258-.265-.005-.218.02-.435.048-.649.042-.325.113-.645.167-.969.046-.277.134-.532.325-.746.103-.115.219-.214.344-.3.628-.428 1.308-.733 2.064-.854.11-.017.209-.052.229-.182z"/></g><g id="m"><path fill="#00f73c" d="M24.353 13.242h23.356v23.353H24.353z"/><linearGradient id="SVGID_1_" gradientUnits="userSpaceOnUse" x1="36.031" y1="31.736" x2="36.031" y2="18.102"><stop offset="0" stop-color="#1a207d"/><stop offset="1" stop-color="#2630ba"/></linearGradient><path d="M41.547 31.016a.797.797 0 0 1-.069.332c-.313.601-1.298.004-1.469-.433-.069-.176-.078-.371-.088-.56a16.575 16.575 0 0 0-.404-2.712c-.176-.782-.385-1.557-.579-2.335a58.477 58.477 0 0 1-.782-3.629c-.019-.104-.004-.23-.052-.327-.079-.164-.159-.041-.192.089-.341 1.37-.688 2.728-.849 4.133-.104.906-.21 1.824-.534 2.683a.983.983 0 0 1-.145.278c-.11.134-.277.205-.437.271a.587.587 0 0 1-.276.063.445.445 0 0 1-.195-.08 1.604 1.604 0 0 1-.388-.404c-.499-.679-.847-1.455-1.184-2.227-.13-.298-.26-.597-.388-.896-.117-.272-.189-.601-.369-.838-.077.027-.076.165-.079.238a68.404 68.404 0 0 1-.315 4.19c-.094.889-.137 1.904-.639 2.676a.468.468 0 0 1-.178.178.388.388 0 0 1-.185.029c-.247-.012-.477-.14-.653-.313a2.48 2.48 0 0 1-.422-.605c-.188-.35-.263-.685-.003-1.016.037-.047.072-.051.117-.015.012.009.156.162.208.148.173-.049.24-.634.295-.968.226-1.351.313-2.721.399-4.088.085-1.348.155-2.705.401-4.036a.732.732 0 0 1 .072-.234c.041-.072.111-.131.193-.137.071-.005.138.03.2.063.12.065.237.133.354.204a.986.986 0 0 1 .252.197c.072.085.114.19.154.293.391.982.783 1.965 1.177 2.947l.765 1.905c.12.298.22-.231.252-.342.065-.226.121-.455.172-.684.205-.924.317-1.864.482-2.796.197-1.139.55-2.198 1.019-3.254.071-.159.144-.318.219-.475.055-.116.102-.294.208-.372.185-.137.468.023.634.12.447.26.686.772.81 1.275.153.62.272 1.251.419 1.873.155.654.339 1.308.466 1.968.148.781.362 1.554.539 2.329.18.795.376 1.586.589 2.373.198.737.411 1.475.468 2.236.004.061.008.123.01.185.01.164.009.332 0 .5z" fill="url(#SVGID_1_)"/></g><g id="w"><path fill="#00e0ff" d="M0 13.242h23.356v23.353H0z"/><linearGradient id="SVGID_2_" gradientUnits="userSpaceOnUse" x1="15.144" y1="29.668" x2="15.144" y2="19.257"><stop offset="0" stop-color="#1a207d"/><stop offset="1" stop-color="#2630ba"/></linearGradient><path d="M17.496 20.474c-.151.488-.337.962-.556 1.424-.216.455-.447.904-.689 1.346-.239.437-.369.911-.462 1.396-.089.465-.151.934-.271 1.393a3.36 3.36 0 0 1-.306.728c-.206.387-.419.771-.637 1.151-.211.366-.413.743-.538 1.148-.047.154-.084.313-.168.451-.044.073-.108.143-.191.155-.13.019-.202-.094-.305-.143-.109-.052-.235-.052-.34-.118a.533.533 0 0 1-.189-.244c-.193-.43-.086-.878.039-1.309.119-.414.253-.824.403-1.229.071-.193.147-.382.208-.576.061-.193.161-.379.214-.574.046-.169.105-.333.173-.494.098-.23.165-.48.247-.716.083-.24.168-.48.252-.719.168-.474.338-.947.512-1.419.337-.913.639-1.859 1.148-2.693.103-.168.248-.199.423-.159.132.03.255.085.38.135.243.062.437.202.585.396.157.203.14.436.068.67z" fill="url(#SVGID_2_)"/><linearGradient id="SVGID_3_" gradientUnits="userSpaceOnUse" x1="9.383" y1="30.581" x2="9.383" y2="19.376"><stop offset="0" stop-color="#1a207d"/><stop offset="1" stop-color="#2630ba"/></linearGradient><path d="M12.957 30.01c-.015.104-.159.215-.237.278a1.342 1.342 0 0 1-.352.207c-.252.1-.539.12-.795.021-.24-.093-.445-.26-.625-.444a3.482 3.482 0 0 1-.818-1.357c-.055-.173-.097-.351-.14-.528l-.338-1.429c-.027-.113-.124-.024-.163.032-.131.188-.263.377-.392.566-.194.283-.388.571-.503.895-.211.596-.179 1.246-.351 1.853a.307.307 0 0 1-.075.148c-.048.044-.119.055-.185.058a.86.86 0 0 1-.312-.027c-.205-.064-.357-.241-.458-.43-.4-.76-.542-1.659-.675-2.497-.114-.723-.234-1.445-.328-2.172l-.038-.292a44.197 44.197 0 0 1-.359-4.494c-.007-.282-.048-.566.155-.792a.667.667 0 0 1 .603-.22c.402.079.658.311.838.656.27.519.317 1.095.379 1.667.066.616.057 1.25.075 1.873.012.384.023.767.05 1.15.015.195.032.389.058.583.007.061-.007.193.075.177.051-.01.083-.094.106-.133.098-.172.189-.348.283-.523l.438-.986c.115-.312.25-.616.391-.918a7.38 7.38 0 0 1 .312-.74c.025 0 .145-.402.16-.445.048-.138.08-.28.117-.422.046-.174.105-.368.263-.455a.618.618 0 0 1 .317-.054c.273.005.557.041.785.191.204.134.344.349.426.579.052.145.085.302.101.455.014.127.047.233.013.362-.027.101-.075.196-.107.296-.061.189-.067.391-.073.59-.014.508-.016 1.017-.062 1.522-.064.692-.024 1.384-.029 2.076-.003.379.043.757.094 1.134.049.362.125.714.253 1.055.029.077.052.159.099.227.071.103.098.078.197.051a.559.559 0 0 1 .586.184.737.737 0 0 1 .078.109c.055.091.178.256.163.363z" fill="url(#SVGID_3_)"/></g></svg>