<svg xmlns="http://www.w3.org/2000/svg" x="0px" y="0px" viewBox="0 0 48 48"
	 style="enable-background:new 0 0 48 48;" xml:space="preserve">
<rect x="2.299" y="2.317" style="fill:#FEFD1A;" width="43.417" height="34.278"/>

<style>

	#m {
	  animation: shake 2s linear alternate infinite;
	}

	#w {
	  animation: shake 2s linear alternate-reverse infinite;
	}

	@keyframes shake {
		100% {
	    	transform: translateY(-11px);    
		}
	}

</style>

<g>
	<path style="fill:#ffffff;" d="M47.968,41.595c0.009-0.176-0.046-0.338-0.118-0.492c-0.189-0.404-0.459-0.623-0.924-0.59
		c-0.18,0.013-0.359,0.052-0.532,0.112c-0.446,0.156-0.866,0.363-1.267,0.611c-0.241,0.149-0.475,0.307-0.658,0.527
		c-0.184,0.22-0.251,0.454-0.016,0.687c0.048,0.048,0.061,0.094,0.029,0.157c-0.039,0.079-0.067,0.163-0.106,0.242
		c-0.228,0.459-0.283,0.941-0.186,1.441c0.076,0.394,0.298,0.672,0.682,0.808c0.26,0.092,0.533,0.101,0.801,0.063
		c0.527-0.075,0.927-0.375,1.268-0.766c0.253-0.29,0.456-0.614,0.63-0.954c0.195-0.381,0.381-0.77,0.399-1.212
		c0.001-0.025,0.012-0.045,0.031-0.06c0-0.165,0-0.33,0-0.495C47.975,41.653,47.966,41.625,47.968,41.595z M47.259,41.748
		c-0.011,0.494-0.179,0.942-0.41,1.37c-0.142,0.264-0.31,0.513-0.506,0.741c-0.243,0.284-0.533,0.494-0.898,0.59
		c-0.104,0.027-0.211,0.024-0.316,0.013c-0.132-0.014-0.22-0.14-0.237-0.311c-0.024-0.236,0.041-0.455,0.124-0.67
		c0.162-0.421,0.399-0.796,0.698-1.135c0.186-0.211,0.347-0.444,0.518-0.668c0.211-0.276,0.491-0.391,0.833-0.359
		c0.108,0.01,0.179,0.089,0.192,0.217C47.265,41.606,47.259,41.677,47.259,41.748z"/>
	<path style="fill:#ffffff;" d="M6.936,41.385c0.018-0.252,0.052-0.501,0.093-0.749c0.038-0.231,0.09-0.461,0.084-0.697
		c-0.006-0.241,0.044-0.479,0.04-0.721c-0.002-0.116,0.021-0.233,0.041-0.349c0.057-0.329,0.135-0.654,0.218-0.978
		c0.037-0.145,0.031-0.29-0.013-0.434c-0.054-0.177-0.184-0.244-0.353-0.273c-0.177-0.031-0.252,0.078-0.323,0.21
		c-0.2,0.375-0.34,0.774-0.489,1.17c-0.02,0.054-0.037,0.111-0.037,0.172c-0.002,0.158-0.021,0.316-0.029,0.474
		c-0.016,0.305-0.045,0.608-0.075,0.911c-0.039,0.391-0.097,0.779-0.156,1.167c-0.079,0.516-0.206,1.023-0.338,1.528
		c-0.104,0.398-0.266,0.778-0.36,1.179c-0.031,0.131-0.064,0.263-0.107,0.39c-0.063,0.185-0.188,0.212-0.334,0.079
		c-0.066-0.06-0.115-0.131-0.158-0.21c-0.209-0.382-0.274-0.81-0.384-1.223c-0.116-0.436-0.181-0.884-0.236-1.331
		c-0.04-0.325-0.083-0.65-0.084-0.981c-0.001-0.412,0.034-0.822,0.032-1.234c-0.001-0.255-0.052-0.502-0.155-0.736
		c-0.055-0.125-0.136-0.234-0.243-0.32c-0.165-0.132-0.346-0.105-0.47,0.067c-0.125,0.173-0.221,0.36-0.288,0.563
		c-0.064,0.196-0.105,0.396-0.13,0.601c-0.039,0.308-0.096,0.614-0.115,0.923c-0.015,0.236-0.041,0.468-0.096,0.695
		c-0.179,0.735-0.304,1.482-0.482,2.217c-0.031,0.127-0.042,0.262-0.119,0.396c-0.041-0.083-0.08-0.149-0.108-0.219
		c-0.097-0.24-0.183-0.483-0.247-0.734c-0.082-0.324-0.16-0.65-0.188-0.983c-0.034-0.409-0.031-0.82-0.068-1.23
		c-0.034-0.369-0.098-0.732-0.196-1.088c-0.057-0.205-0.141-0.399-0.264-0.574c-0.042-0.06-0.094-0.104-0.159-0.135
		c-0.119-0.058-0.138-0.061-0.227,0.042c-0.12,0.137-0.234,0.279-0.344,0.424c-0.071,0.092-0.065,0.123,0.02,0.212
		c0.066,0.069,0.13,0.135,0.142,0.237c0.018,0.152,0.038,0.302,0.035,0.456c-0.011,0.558,0.002,1.114,0.1,1.667
		c0.074,0.415,0.129,0.834,0.222,1.245c0.121,0.53,0.289,1.043,0.623,1.483c0.2,0.264,0.432,0.497,0.734,0.648
		c0.1,0.05,0.203,0.064,0.306,0.018c0.097-0.043,0.182-0.102,0.246-0.194c0.119-0.172,0.193-0.362,0.243-0.563
		c0.127-0.506,0.255-1.013,0.382-1.519c0.014-0.056,0.009-0.131,0.091-0.127c0.08,0.003,0.075,0.086,0.083,0.136
		c0.021,0.128,0.05,0.254,0.092,0.376c0.231,0.666,0.562,1.28,0.994,1.836c0.098,0.126,0.217,0.23,0.359,0.308
		c0.229,0.125,0.426,0.082,0.604-0.063c0.109-0.089,0.206-0.192,0.291-0.307c0.293-0.395,0.516-0.828,0.669-1.294
		c0.2-0.608,0.339-1.233,0.492-1.854C6.85,41.858,6.919,41.626,6.936,41.385z"/>
	<path style="fill:#ffffff;" d="M21.711,43.721c-0.054-0.306-0.072-0.614-0.056-0.925c0.014-0.281,0.054-0.56,0.072-0.841
		c0.021-0.322,0.063-0.642,0.082-0.964c0.018-0.315,0.067-0.629,0.095-0.944c0.03-0.327,0.043-0.656,0.081-0.981
		c0.016-0.14,0.012-0.283,0.037-0.42c0.042-0.23,0.036-0.456-0.011-0.682c-0.058-0.273-0.174-0.513-0.429-0.658
		c-0.142-0.08-0.233-0.066-0.352,0.042c-0.096,0.087-0.176,0.188-0.255,0.291c-0.408,0.533-0.793,1.08-1.063,1.699
		c-0.033,0.075-0.063,0.152-0.098,0.227c-0.015,0.033-0.042,0.058-0.084,0.051c-0.045-0.007-0.051-0.043-0.052-0.08
		c-0.001-0.106,0-0.212,0-0.318h-0.001c0-0.082-0.002-0.165,0-0.247c0.009-0.35-0.159-0.592-0.462-0.748
		c-0.216-0.111-0.404-0.046-0.511,0.174c-0.023,0.048-0.04,0.097-0.052,0.149c-0.031,0.143-0.064,0.286-0.103,0.427
		c-0.132,0.476-0.312,0.935-0.506,1.39c-0.467,1.098-0.907,2.207-1.432,3.279c-0.075,0.153-0.069,0.303,0.008,0.455
		c0.055,0.108,0.135,0.194,0.228,0.266c0.134,0.104,0.285,0.087,0.411-0.033c0.122-0.116,0.194-0.264,0.273-0.409
		c0.339-0.621,0.609-1.272,0.851-1.935c0.026-0.072,0.056-0.142,0.086-0.212c0.011-0.027,0.026-0.057,0.062-0.051
		c0.035,0.006,0.073,0.019,0.081,0.058c0.009,0.04,0.01,0.082,0.008,0.122c-0.006,0.113,0.014,0.224,0.045,0.331
		c0.062,0.215,0.134,0.426,0.307,0.586c0.199,0.184,0.379,0.172,0.53-0.047c0.047-0.068,0.087-0.14,0.125-0.212
		c0.275-0.516,0.468-1.065,0.655-1.616c0.125-0.368,0.27-0.727,0.457-1.069c0.017-0.031,0.031-0.063,0.05-0.094
		c0.019-0.031,0.044-0.058,0.085-0.049c0.045,0.009,0.047,0.046,0.047,0.082c-0.003,0.1-0.001,0.2-0.011,0.3
		c-0.029,0.297-0.067,0.593-0.094,0.891c-0.029,0.315-0.039,0.633-0.083,0.946c-0.023,0.163-0.021,0.327-0.053,0.489
		c-0.032,0.165-0.038,0.338-0.033,0.507c0.006,0.181,0.038,0.361,0.061,0.541c0.034,0.262,0.062,0.524,0.16,0.772
		c0.1,0.252,0.221,0.494,0.356,0.728c0.091,0.157,0.194,0.309,0.326,0.437c0.137,0.134,0.409,0.154,0.564,0.043
		c0.069-0.05,0.108-0.115,0.116-0.207c0.016-0.174-0.062-0.319-0.122-0.471C21.968,44.438,21.778,44.102,21.711,43.721z"/>
	<path style="fill:#ffffff;" d="M31.904,40.704c-0.271-0.165-0.56-0.145-0.852-0.074c-0.351,0.085-0.677,0.228-0.991,0.406
		c-0.365,0.206-0.703,0.448-1.017,0.724c-0.496,0.437-0.753,1.011-0.921,1.634c-0.022,0.083-0.053,0.125-0.14,0.121
		c-0.1-0.004-0.202,0.007-0.3-0.007c-0.198-0.029-0.38-0.092-0.456-0.306c-0.041-0.115-0.034-0.232-0.009-0.348
		c0.034-0.161,0.088-0.318,0.109-0.48c0.036-0.286,0.055-0.576-0.054-0.853c-0.069-0.177-0.168-0.339-0.332-0.443
		c-0.191-0.122-0.364-0.033-0.417,0.184c-0.039,0.161,0.006,0.332-0.077,0.496c-0.075-0.152-0.136-0.293-0.21-0.425
		c-0.311-0.553-0.755-0.861-1.421-0.797c-0.332,0.032-0.628,0.133-0.903,0.314c-0.238,0.157-0.44,0.352-0.612,0.578
		c-0.233,0.307-0.414,0.638-0.519,1.013c-0.094,0.334-0.109,0.671-0.099,1.013c0.012,0.401,0.111,0.778,0.322,1.121
		c0.264,0.428,0.654,0.644,1.154,0.668c0.493,0.024,0.935-0.145,1.362-0.364c0.447-0.23,0.804-0.567,1.119-0.954
		c0.061-0.075,0.107-0.168,0.191-0.222c0.054,0.025,0.063,0.076,0.086,0.115c0.181,0.297,0.657,0.589,1.06,0.316
		c0.103-0.07,0.115-0.058,0.151,0.061c0.127,0.417,0.398,0.7,0.796,0.865c0.235,0.098,0.486,0.131,0.738,0.144
		c0.33,0.018,0.657-0.017,0.981-0.075c0.271-0.048,0.539-0.118,0.785-0.25c0.095-0.051,0.179-0.114,0.229-0.212
		c0.058-0.112,0.024-0.199-0.094-0.234c-0.125-0.037-0.255-0.057-0.383-0.026c-0.144,0.034-0.292,0.041-0.436,0.051
		c-0.416,0.027-0.832,0.057-1.25,0.043c-0.113-0.004-0.222-0.026-0.327-0.061c-0.325-0.109-0.405-0.493-0.363-0.744
		c0.053-0.308,0.188-0.579,0.35-0.84c0.068-0.109,0.07-0.109,0.156-0.009c0.141,0.164,0.297,0.285,0.526,0.323
		c0.427,0.071,0.816-0.025,1.188-0.218c0.332-0.172,0.613-0.412,0.87-0.683c0.149-0.157,0.26-0.335,0.34-0.532
		c0.057-0.141,0.097-0.292,0.079-0.447C32.283,41.022,32.124,40.838,31.904,40.704z M25.962,43.604
		c-0.364,0.333-0.773,0.592-1.251,0.732c-0.236,0.069-0.472,0.085-0.712,0.032c-0.29-0.064-0.471-0.253-0.573-0.522
		c-0.108-0.283-0.092-0.578-0.052-0.87c0.091-0.673,0.475-1.164,1.002-1.555c0.159-0.118,0.334-0.21,0.538-0.25
		c0.232-0.046,0.423,0.028,0.588,0.163c0.334,0.274,0.502,0.641,0.54,1.07c0.016,0.182,0.061,0.358,0.117,0.531
		c0.034,0.105,0.111,0.16,0.238,0.166C26.279,43.323,26.117,43.462,25.962,43.604z M31.567,41.409
		c-0.034,0.087-0.069,0.176-0.132,0.247c-0.284,0.318-0.604,0.589-1.013,0.735c-0.088,0.031-0.179,0.049-0.273,0.061
		c-0.149,0.02-0.244-0.051-0.329-0.158c-0.047-0.059-0.038-0.094,0.019-0.144c0.225-0.199,0.471-0.366,0.728-0.518
		c0.218-0.129,0.444-0.235,0.692-0.294c0.058-0.014,0.115-0.018,0.174-0.02c0.023,0,0.047,0,0.07,0
		C31.569,41.317,31.589,41.353,31.567,41.409z"/>
	<path style="fill:#ffffff;" d="M16.114,43.37c-0.258-0.614-0.58-1.195-0.958-1.742c-0.214-0.31-0.46-0.594-0.784-0.801
		c-0.347-0.222-0.718-0.325-1.123-0.211c-0.246,0.069-0.455,0.214-0.647,0.383c-0.064,0.057-0.116,0.129-0.226,0.191
		c0.153-0.811,0.334-1.575,0.44-2.352c0.025-0.185,0.061-0.37,0.051-0.56c-0.021-0.391-0.242-0.595-0.584-0.524
		c-0.216,0.045-0.234,0.099-0.23,0.269c0.009,0.365-0.034,0.727-0.078,1.087c-0.07,0.576-0.19,1.143-0.324,1.708
		c-0.188,0.792-0.391,1.582-0.534,2.384c-0.051,0.288-0.11,0.58-0.08,0.873c0.043,0.431,0.126,0.551,0.546,0.529
		c0.029-0.001,0.06-0.006,0.085-0.018c0.085-0.04,0.161-0.017,0.232,0.032c0.103,0.069,0.215,0.12,0.329,0.167
		c0.211,0.089,0.428,0.162,0.647,0.228c0.551,0.166,1.117,0.262,1.687,0.328c0.104,0.012,0.213,0.048,0.313,0.031
		c0.217-0.037,0.434-0.025,0.65-0.025c0.449,0.001,0.708-0.275,0.772-0.688c0.026-0.166,0.014-0.324,0-0.489
		C16.273,43.896,16.221,43.625,16.114,43.37z M15.24,44.579c-0.237,0.03-0.468-0.004-0.698-0.026
		c-0.389-0.037-0.773-0.12-1.163-0.164c-0.22-0.025-0.44-0.064-0.653-0.131c-0.103-0.032-0.173-0.076-0.19-0.199
		c-0.021-0.153-0.135-0.243-0.27-0.301c-0.083-0.036-0.111-0.074-0.08-0.173c0.192-0.61,0.368-1.227,0.745-1.758
		c0.099-0.14,0.217-0.262,0.362-0.356c0.259-0.17,0.518-0.153,0.766,0.033c0.171,0.129,0.312,0.286,0.441,0.452
		c0.293,0.378,0.513,0.799,0.706,1.236c0.131,0.297,0.241,0.598,0.292,0.919c0.007,0.046,0.014,0.092,0.015,0.101
		C15.517,44.479,15.425,44.556,15.24,44.579z"/>
	<path style="fill:#ffffff;" d="M10.158,40.579c-0.454-0.003-0.863,0.162-1.256,0.364c-0.318,0.164-0.618,0.36-0.903,0.581
		c-0.402,0.311-0.736,0.671-0.943,1.143c-0.168,0.384-0.325,0.766-0.303,1.2c0.023,0.436,0.201,0.778,0.553,1.032
		c0.308,0.223,0.666,0.282,1.032,0.303c0.323,0.018,0.645-0.017,0.963-0.073c0.277-0.049,0.551-0.119,0.802-0.254
		c0.095-0.051,0.178-0.115,0.228-0.213c0.056-0.112,0.02-0.195-0.099-0.232c-0.114-0.035-0.231-0.05-0.348-0.032
		c-0.453,0.069-0.91,0.09-1.3,0.1c-0.26-0.006-0.454,0.012-0.646-0.032C7.747,44.421,7.61,44.32,7.53,44.139
		c-0.064-0.145-0.076-0.293-0.05-0.448c0.051-0.308,0.188-0.579,0.35-0.84c0.067-0.107,0.068-0.106,0.156-0.005
		c0.133,0.153,0.277,0.278,0.492,0.316c0.45,0.08,0.86-0.02,1.253-0.233c0.325-0.176,0.598-0.413,0.852-0.678
		c0.15-0.156,0.259-0.337,0.333-0.536c0.054-0.147,0.093-0.299,0.066-0.464C10.922,40.877,10.516,40.582,10.158,40.579z
		 M10.131,41.621c-0.317,0.379-0.687,0.687-1.181,0.81c-0.023,0.006-0.045,0.013-0.068,0.015c-0.029,0.003-0.059,0.001-0.088,0.001
		c-0.052,0.001-0.107,0.012-0.155-0.018c-0.07-0.045-0.137-0.101-0.168-0.176c-0.042-0.102,0.071-0.125,0.12-0.165
		c0.401-0.327,0.823-0.619,1.336-0.748c0.103-0.026,0.243-0.069,0.3,0.003C10.295,41.429,10.193,41.546,10.131,41.621z"/>
	<path style="fill:#ffffff;" d="M35.894,42.845c-0.388-0.296-0.827-0.483-1.31-0.578c-0.333-0.065-0.67-0.118-0.991-0.236
		c-0.049-0.018-0.101-0.036-0.143-0.066c-0.091-0.063-0.094-0.145-0.011-0.22c0.053-0.048,0.119-0.078,0.185-0.101
		c0.345-0.122,0.704-0.196,1.066-0.214c0.578-0.028,0.591-0.052,1.025,0.295c0.122,0.098,0.269,0.059,0.406,0.037
		c0.045-0.007,0.072-0.056,0.087-0.103c0.06-0.181,0.052-0.35-0.094-0.488c-0.34-0.321-0.751-0.467-1.209-0.496
		c-0.102,0.012-0.2,0.01-0.3,0.029c-0.366,0.07-0.711,0.201-1.055,0.336c-0.242,0.095-0.474,0.209-0.682,0.365
		c-0.313,0.235-0.348,0.514-0.105,0.859c0.101,0.144,0.237,0.263,0.393,0.351c0.267,0.151,0.546,0.275,0.841,0.36
		c0.31,0.089,0.62,0.181,0.924,0.289c0.183,0.065,0.36,0.145,0.53,0.238c0.137,0.074,0.213,0.16,0.127,0.384
		c-0.048,0.126-0.14,0.213-0.256,0.281c-0.212,0.125-0.444,0.193-0.683,0.217c-0.399,0.04-0.788-0.003-1.128-0.246
		c-0.092-0.065-0.191-0.116-0.292-0.163c-0.135-0.064-0.28-0.019-0.386,0.114c-0.107,0.135-0.117,0.261-0.019,0.385
		c0.065,0.083,0.141,0.156,0.233,0.214c0.332,0.21,0.697,0.335,1.078,0.42c0.328,0.073,0.651,0.054,0.968-0.053
		c0.275-0.093,0.521-0.24,0.753-0.415c0.153-0.115,0.277-0.253,0.376-0.415C36.509,43.754,36.311,43.163,35.894,42.845z"/>
	<path style="fill:#ffffff;" d="M40.101,40.721c-0.023,0.001-0.047,0-0.07,0.005c-0.219,0.041-0.443,0.039-0.664,0.061
		c-0.245,0.025-0.491,0.032-0.735,0.066c-0.068,0.01-0.14,0.018-0.222-0.011c0.038-0.201,0.074-0.391,0.11-0.58
		c0.059-0.317,0.125-0.633,0.121-0.958c-0.002-0.147-0.029-0.291-0.103-0.423c-0.064-0.114-0.168-0.173-0.29-0.167
		c-0.113,0.006-0.212,0.064-0.264,0.178c-0.036,0.081-0.067,0.162-0.084,0.25c-0.047,0.236-0.05,0.477-0.09,0.714
		c-0.054,0.323-0.166,0.636-0.162,0.97c0.002,0.142-0.049,0.183-0.188,0.206c-0.064,0.01-0.128,0.022-0.191,0.029
		c-0.161,0.019-0.316,0.067-0.487,0.021c-0.167-0.046-0.36,0.067-0.413,0.199c-0.104,0.261,0.107,0.592,0.387,0.607
		c0.172,0.009,0.338-0.021,0.504-0.064c0.234-0.061,0.249-0.042,0.2,0.201c-0.102,0.505-0.252,1.001-0.317,1.514
		c-0.063,0.49,0.042,0.937,0.339,1.329c0.203,0.269,0.477,0.371,0.811,0.274c0.096-0.028,0.193-0.052,0.287-0.085
		c0.164-0.059,0.274-0.148,0.298-0.348c0.035-0.295-0.138-0.508-0.438-0.495c-0.079,0.004-0.129,0.024-0.154,0.111
		c-0.032,0.112-0.075,0.126-0.159,0.054c-0.187-0.16-0.306-0.368-0.29-0.616c0.018-0.28,0.07-0.557,0.11-0.836
		c0.044-0.307,0.14-0.605,0.136-0.921c-0.001-0.103,0.025-0.209,0.061-0.309c0.02-0.056,0.054-0.084,0.115-0.093
		c0.481-0.07,0.961-0.14,1.441-0.215c0.185-0.029,0.369-0.067,0.551-0.109c0.138-0.032,0.186-0.093,0.193-0.214
		C40.465,40.754,40.417,40.706,40.101,40.721z"/>
	<path style="fill:#ffffff;" d="M44.43,41.204c0.006-0.037,0.026-0.063,0.048-0.092c0.086-0.117,0.083-0.214-0.02-0.31
		c-0.111-0.104-0.242-0.167-0.399-0.149c-0.11,0.012-0.22,0.03-0.33,0.049c-0.302,0.051-0.591,0.151-0.873,0.267
		c-0.586,0.241-1.168,0.49-1.648,0.949c-0.038-0.122-0.065-0.224-0.102-0.323c-0.036-0.094-0.09-0.178-0.178-0.235
		c-0.191-0.123-0.395-0.03-0.412,0.195c-0.016,0.205-0.039,0.408-0.035,0.615c0.007,0.329-0.004,0.659,0.003,0.988
		c0.005,0.236-0.021,0.47-0.053,0.701c-0.045,0.327-0.008,0.644,0.079,0.955c0.079,0.284,0.196,0.358,0.485,0.355
		c0.202-0.002,0.263-0.058,0.258-0.265c-0.005-0.218,0.02-0.435,0.048-0.649c0.042-0.325,0.113-0.645,0.167-0.969
		c0.046-0.277,0.134-0.532,0.325-0.746c0.103-0.115,0.219-0.214,0.344-0.3c0.628-0.428,1.308-0.733,2.064-0.854
		C44.311,41.369,44.41,41.334,44.43,41.204z"/>
</g>
<g id="m">
	<rect x="24.353" y="13.242" style="fill:#00F73C;" width="23.356" height="23.353"/>
	<linearGradient id="SVGID_1_" gradientUnits="userSpaceOnUse" x1="36.0309" y1="31.7359" x2="36.0309" y2="18.1018">
		<stop  offset="0" style="stop-color:#1A207D"/>
		<stop  offset="1" style="stop-color:#2630BA"/>
	</linearGradient>
	<path style="fill:url(#SVGID_1_);" d="M41.547,31.016c-0.006,0.114-0.016,0.231-0.069,0.332c-0.313,0.601-1.298,0.004-1.469-0.433
		c-0.069-0.176-0.078-0.371-0.088-0.56c-0.052-0.915-0.202-1.818-0.404-2.712c-0.176-0.782-0.385-1.557-0.579-2.335
		c-0.199-0.801-0.382-1.605-0.547-2.414c-0.083-0.404-0.161-0.809-0.235-1.215c-0.019-0.104-0.004-0.23-0.052-0.327
		c-0.079-0.164-0.159-0.041-0.192,0.089c-0.341,1.37-0.688,2.728-0.849,4.133c-0.104,0.906-0.21,1.824-0.534,2.683
		c-0.037,0.097-0.078,0.196-0.145,0.278c-0.11,0.134-0.277,0.205-0.437,0.271c-0.089,0.036-0.181,0.073-0.276,0.063
		c-0.07-0.007-0.136-0.041-0.195-0.08c-0.156-0.104-0.277-0.252-0.388-0.404c-0.499-0.679-0.847-1.455-1.184-2.227
		c-0.13-0.298-0.26-0.597-0.388-0.896c-0.117-0.272-0.189-0.601-0.369-0.838c-0.077,0.027-0.076,0.165-0.079,0.238
		c-0.017,0.385-0.038,0.771-0.061,1.156c-0.062,1.013-0.147,2.025-0.254,3.034c-0.094,0.889-0.137,1.904-0.639,2.676
		c-0.047,0.071-0.101,0.142-0.178,0.178c-0.057,0.027-0.122,0.032-0.185,0.029c-0.247-0.012-0.477-0.14-0.653-0.313
		c-0.176-0.173-0.305-0.388-0.422-0.605c-0.188-0.35-0.263-0.685-0.003-1.016c0.037-0.047,0.072-0.051,0.117-0.015
		c0.012,0.009,0.156,0.162,0.208,0.148c0.173-0.049,0.24-0.634,0.295-0.968c0.226-1.351,0.313-2.721,0.399-4.088
		c0.085-1.348,0.155-2.705,0.401-4.036c0.015-0.08,0.031-0.163,0.072-0.234c0.041-0.072,0.111-0.131,0.193-0.137
		c0.071-0.005,0.138,0.03,0.2,0.063c0.12,0.065,0.237,0.133,0.354,0.204c0.091,0.056,0.183,0.114,0.252,0.197
		c0.072,0.085,0.114,0.19,0.154,0.293c0.391,0.982,0.783,1.965,1.177,2.947c0.255,0.635,0.509,1.27,0.765,1.905
		c0.12,0.298,0.22-0.231,0.252-0.342c0.065-0.226,0.121-0.455,0.172-0.684c0.205-0.924,0.317-1.864,0.482-2.796
		c0.197-1.139,0.55-2.198,1.019-3.254c0.071-0.159,0.144-0.318,0.219-0.475c0.055-0.116,0.102-0.294,0.208-0.372
		c0.185-0.137,0.468,0.023,0.634,0.12c0.447,0.26,0.686,0.772,0.81,1.275c0.153,0.62,0.272,1.251,0.419,1.873
		c0.155,0.654,0.339,1.308,0.466,1.968c0.148,0.781,0.362,1.554,0.539,2.329c0.18,0.795,0.376,1.586,0.589,2.373
		c0.198,0.737,0.411,1.475,0.468,2.236c0.004,0.061,0.008,0.123,0.01,0.185C41.557,30.68,41.556,30.848,41.547,31.016z"/>
</g>
<g id="w">
	<rect x="0" y="13.242" style="fill:#00E0FF;" width="23.356" height="23.353"/>
	<g>
		<linearGradient id="SVGID_2_" gradientUnits="userSpaceOnUse" x1="15.1442" y1="29.6682" x2="15.1442" y2="19.2568">
			<stop  offset="0" style="stop-color:#1A207D"/>
			<stop  offset="1" style="stop-color:#2630BA"/>
		</linearGradient>
		<path style="fill:url(#SVGID_2_);" d="M17.496,20.474c-0.151,0.488-0.337,0.962-0.556,1.424c-0.216,0.455-0.447,0.904-0.689,1.346
			c-0.239,0.437-0.369,0.911-0.462,1.396c-0.089,0.465-0.151,0.934-0.271,1.393c-0.068,0.26-0.182,0.495-0.306,0.728
			c-0.206,0.387-0.419,0.771-0.637,1.151c-0.211,0.366-0.413,0.743-0.538,1.148c-0.047,0.154-0.084,0.313-0.168,0.451
			c-0.044,0.073-0.108,0.143-0.191,0.155c-0.13,0.019-0.202-0.094-0.305-0.143c-0.109-0.052-0.235-0.052-0.34-0.118
			c-0.089-0.055-0.146-0.149-0.189-0.244c-0.193-0.43-0.086-0.878,0.039-1.309c0.119-0.414,0.253-0.824,0.403-1.229
			c0.071-0.193,0.147-0.382,0.208-0.576c0.061-0.193,0.161-0.379,0.214-0.574c0.046-0.169,0.105-0.333,0.173-0.494
			c0.098-0.23,0.165-0.48,0.247-0.716c0.083-0.24,0.168-0.48,0.252-0.719c0.168-0.474,0.338-0.947,0.512-1.419
			c0.337-0.913,0.639-1.859,1.148-2.693c0.103-0.168,0.248-0.199,0.423-0.159c0.132,0.03,0.255,0.085,0.38,0.135
			c0.243,0.062,0.437,0.202,0.585,0.396C17.585,20.007,17.568,20.24,17.496,20.474z"/>
		<linearGradient id="SVGID_3_" gradientUnits="userSpaceOnUse" x1="9.3826" y1="30.5809" x2="9.3826" y2="19.3757">
			<stop  offset="0" style="stop-color:#1A207D"/>
			<stop  offset="1" style="stop-color:#2630BA"/>
		</linearGradient>
		<path style="fill:url(#SVGID_3_);" d="M12.957,30.01c-0.015,0.104-0.159,0.215-0.237,0.278c-0.106,0.086-0.225,0.157-0.352,0.207
			c-0.252,0.1-0.539,0.12-0.795,0.021c-0.24-0.093-0.445-0.26-0.625-0.444c-0.372-0.382-0.655-0.85-0.818-1.357
			c-0.055-0.173-0.097-0.351-0.14-0.528c-0.112-0.476-0.225-0.953-0.338-1.429c-0.027-0.113-0.124-0.024-0.163,0.032
			c-0.131,0.188-0.263,0.377-0.392,0.566c-0.194,0.283-0.388,0.571-0.503,0.895c-0.211,0.596-0.179,1.246-0.351,1.853
			c-0.016,0.054-0.033,0.11-0.075,0.148c-0.048,0.044-0.119,0.055-0.185,0.058c-0.105,0.007-0.212,0.004-0.312-0.027
			c-0.205-0.064-0.357-0.241-0.458-0.43c-0.4-0.76-0.542-1.659-0.675-2.497c-0.114-0.723-0.234-1.445-0.328-2.172
			c-0.013-0.097-0.025-0.194-0.038-0.292c-0.19-1.494-0.322-2.989-0.359-4.494c-0.007-0.282-0.048-0.566,0.155-0.792
			c0.147-0.164,0.383-0.263,0.603-0.22c0.402,0.079,0.658,0.311,0.838,0.656c0.27,0.519,0.317,1.095,0.379,1.667
			c0.066,0.616,0.057,1.25,0.075,1.873c0.012,0.384,0.023,0.767,0.05,1.15c0.015,0.195,0.032,0.389,0.058,0.583
			c0.007,0.061-0.007,0.193,0.075,0.177c0.051-0.01,0.083-0.094,0.106-0.133c0.098-0.172,0.189-0.348,0.283-0.523
			c0.146-0.328,0.292-0.658,0.438-0.986c0.115-0.312,0.25-0.616,0.391-0.918c0.091-0.252,0.194-0.499,0.312-0.74
			c0.025,0,0.145-0.402,0.16-0.445c0.048-0.138,0.08-0.28,0.117-0.422c0.046-0.174,0.105-0.368,0.263-0.455
			c0.094-0.053,0.208-0.056,0.317-0.054c0.273,0.005,0.557,0.041,0.785,0.191c0.204,0.134,0.344,0.349,0.426,0.579
			c0.052,0.145,0.085,0.302,0.101,0.455c0.014,0.127,0.047,0.233,0.013,0.362c-0.027,0.101-0.075,0.196-0.107,0.296
			c-0.061,0.189-0.067,0.391-0.073,0.59c-0.014,0.508-0.016,1.017-0.062,1.522c-0.064,0.692-0.024,1.384-0.029,2.076
			c-0.003,0.379,0.043,0.757,0.094,1.134c0.049,0.362,0.125,0.714,0.253,1.055c0.029,0.077,0.052,0.159,0.099,0.227
			c0.071,0.103,0.098,0.078,0.197,0.051c0.234-0.063,0.441,0.018,0.586,0.184c0.028,0.033,0.055,0.069,0.078,0.109
			C12.849,29.738,12.972,29.903,12.957,30.01z"/>
	</g>
</g>
</svg>